<?xml version="1.0" encoding="UTF-8"?>
<svg version="1.1" xmlns="http://www.w3.org/2000/svg" width="500" height="500">
<path d="M0 0 C1.71429142 -0.00457601 3.42858101 -0.00988572 5.14286804 -0.0158844 C8.7173106 -0.02476121 12.2915291 -0.02245581 15.8659668 -0.01245117 C20.40100971 -0.00098213 24.93527149 -0.02116916 29.47021198 -0.05036831 C33.00602467 -0.06889563 36.54165595 -0.0684051 40.07750511 -0.06273079 C41.74731731 -0.06257951 43.41714339 -0.06845972 45.08690834 -0.08102226 C61.09880839 -0.18453561 74.91498488 2.42408587 89.01171875 10.43359375 C89.01171875 11.09359375 89.01171875 11.75359375 89.01171875 12.43359375 C89.73359375 12.66046875 90.45546875 12.88734375 91.19921875 13.12109375 C94.65071278 14.73179096 96.43888942 16.61573305 99.01171875 19.43359375 C99.62917969 20.10519531 100.24664062 20.77679688 100.8828125 21.46875 C106.01171875 27.15492172 106.01171875 27.15492172 106.01171875 29.43359375 C106.67171875 29.43359375 107.33171875 29.43359375 108.01171875 29.43359375 C118.48572256 48.8105008 122.8264671 70.38839173 116.77319336 91.9597168 C116.21639492 93.79383485 115.61486846 95.61419166 115.01171875 97.43359375 C114.67269531 98.48804688 114.33367187 99.5425 113.984375 100.62890625 C110.5243249 110.06092895 104.29466531 119.15983092 96.38671875 125.43359375 C92.54294985 130.28888078 93.48012417 135.47682164 94.01171875 141.43359375 C94.20605121 142.9354718 94.41179375 144.43599183 94.63671875 145.93359375 C95.02291594 149.53810087 94.69089262 151.27279588 93.01171875 154.43359375 C92.35171875 154.43359375 91.69171875 154.43359375 91.01171875 154.43359375 C91.01171875 155.09359375 91.01171875 155.75359375 91.01171875 156.43359375 C82.57099656 158.84522866 77.27892351 155.57867817 69.9765625 151.609375 C69.40542725 151.28880127 68.83429199 150.96822754 68.24584961 150.63793945 C67.50858643 150.24050537 66.77132324 149.84307129 66.01171875 149.43359375 C64.40744019 148.39295776 64.40744019 148.39295776 62.77075195 147.33129883 C56.30470378 144.1407525 48.94295151 144.87023748 41.90234375 144.89453125 C40.32825363 144.88460595 38.75417511 144.8726578 37.18011475 144.85879517 C33.04849291 144.82654294 28.91713568 144.8160532 24.78540039 144.81195068 C18.18874963 144.803176 11.59231542 144.76722242 4.99584198 144.71977615 C2.71168077 144.70735395 0.42780328 144.70793522 -1.85638428 144.71005249 C-22.68449674 144.65282291 -40.31498903 139.88541417 -55.61328125 125.12109375 C-58.98828125 121.72608387 -58.98828125 121.72608387 -58.98828125 119.43359375 C-59.64828125 119.43359375 -60.30828125 119.43359375 -60.98828125 119.43359375 C-60.98828125 118.77359375 -60.98828125 118.11359375 -60.98828125 117.43359375 C-61.64828125 117.43359375 -62.30828125 117.43359375 -62.98828125 117.43359375 C-68.72882555 107.30177839 -73.44482675 97.87913898 -75.98828125 86.43359375 C-76.17777344 85.67175781 -76.36726562 84.90992188 -76.5625 84.125 C-79.61327712 64.84072995 -75.38161443 45.84291865 -64.98828125 29.43359375 C-62.24667313 25.78290091 -59.29901044 22.57158925 -55.98828125 19.43359375 C-55.23675781 18.72074219 -54.48523438 18.00789063 -53.7109375 17.2734375 C-48.38999596 12.43359375 -48.38999596 12.43359375 -45.98828125 12.43359375 C-45.98828125 11.77359375 -45.98828125 11.11359375 -45.98828125 10.43359375 C-43.76657543 9.3119857 -41.53752296 8.21202666 -39.30078125 7.12109375 C-38.69427734 6.81236328 -38.08777344 6.50363281 -37.46289062 6.18554688 C-25.43910556 0.38727489 -13.05586925 -0.03093175 0 0 Z M-32.98828125 46.43359375 C-32.90813798 49.87975431 -32.43267085 50.98920415 -29.98828125 53.43359375 C-28.08284377 53.73071197 -28.08284377 53.73071197 -25.87545776 53.67410278 C-25.01446472 53.67685211 -24.15347168 53.67960144 -23.26638794 53.68243408 C-22.31980316 53.67524353 -21.37321838 53.66805298 -20.39794922 53.66064453 C-18.90521484 53.66108261 -18.90521484 53.66108261 -17.38232422 53.66152954 C-14.08161809 53.66013235 -10.78113562 53.64455279 -7.48046875 53.62890625 C-5.19646325 53.62517751 -2.91245615 53.62232988 -0.62844849 53.62033081 C5.39187005 53.61268345 11.41209254 53.59302549 17.43237305 53.57092285 C23.57208965 53.55048815 29.71182172 53.54133418 35.8515625 53.53125 C47.90499018 53.50978064 59.95834649 53.47563142 72.01171875 53.43359375 C73.53044366 50.70343456 74.01368721 49.53201693 73.94921875 46.30859375 C73.32673488 43.28252889 73.32673488 43.28252889 70.83935547 42.25244141 C67.63752496 41.32523199 65.15921178 41.29498514 61.83203125 41.45703125 C60.60959717 41.50875488 59.38716309 41.56047852 58.12768555 41.61376953 C56.8106665 41.67806152 55.49364746 41.74235352 54.13671875 41.80859375 C51.31278437 41.92579434 48.48848977 42.03214063 45.6640625 42.13671875 C44.94243423 42.16400055 44.22080597 42.19128235 43.47731018 42.21939087 C36.21824797 42.4833199 28.96300964 42.55718495 21.69921875 42.55859375 C20.44915039 42.56076904 19.19908203 42.56294434 17.91113281 42.56518555 C10.82012554 42.54584316 3.76183703 42.36109396 -3.3203125 42.03125 C-4.8856529 41.96384595 -6.45100116 41.89662446 -8.01635742 41.82958984 C-11.02555432 41.69974325 -14.03011116 41.53489029 -17.03637695 41.35009766 C-18.40831165 41.28689743 -19.78029904 41.22482759 -21.15234375 41.1640625 C-22.3532666 41.09598389 -23.55418945 41.02790527 -24.79150391 40.95776367 C-28.98516814 41.58197717 -30.41935492 43.14164531 -32.98828125 46.43359375 Z M-32.98828125 72.43359375 C-32.02052027 76.22907296 -32.02052027 76.22907296 -29.98828125 79.43359375 C-26.86886305 79.55027886 -23.77130292 79.60163258 -20.65087891 79.6105957 C-19.67044113 79.6171669 -18.69000336 79.6237381 -17.67985535 79.63050842 C-14.42068414 79.65029288 -11.16155909 79.6619146 -7.90234375 79.671875 C-6.23790285 79.67798829 -6.23790285 79.67798829 -4.53983688 79.68422508 C1.33151312 79.70510645 7.2028396 79.71939998 13.07421875 79.72875977 C19.153258 79.73983677 25.23193245 79.7742459 31.31084251 79.81393147 C35.97244978 79.84001598 40.63396901 79.84844426 45.29564285 79.85204124 C47.53722221 79.8569273 49.77879713 79.86859813 52.02030563 79.88707924 C55.15234438 79.91130008 58.28342459 79.91053697 61.41552734 79.90356445 C62.81362892 79.92277954 62.81362892 79.92277954 64.23997498 79.94238281 C69.1118886 80.02512532 69.1118886 80.02512532 73.11929321 77.59953308 C74.3901169 74.51521188 73.97089258 72.5851649 73.01171875 69.43359375 C69.97235765 67.40735302 69.37619019 67.18168071 65.96414185 67.15943909 C65.14265656 67.14946396 64.32117126 67.13948883 63.47479248 67.12921143 C62.57706116 67.12854675 61.67932983 67.12788208 60.75439453 67.12719727 C59.806138 67.11887375 58.85788147 67.11055023 57.88088989 67.10197449 C54.73956217 67.07783727 51.59844193 67.0690979 48.45703125 67.0625 C46.27611223 67.05353669 44.09519385 67.04441491 41.91427612 67.03514099 C37.33948267 67.01863844 32.76476251 67.01094853 28.18994141 67.00805664 C22.32625976 67.00267078 16.46326634 66.96498718 10.59977913 66.91931248 C6.09420248 66.88957869 1.58879231 66.88233388 -2.91687393 66.88133049 C-5.0786568 66.87712109 -7.24043985 66.86465814 -9.40212631 66.84381294 C-12.4259892 66.81697481 -15.44824703 66.82170177 -18.47216797 66.83422852 C-19.36585083 66.81939423 -20.25953369 66.80455994 -21.18029785 66.78927612 C-27.01050079 66.85809766 -29.38757127 67.77965116 -32.98828125 72.43359375 Z M-31.98828125 95.43359375 C-33.04260404 98.77228259 -33.0932188 101.1187811 -31.98828125 104.43359375 C-28.45912477 105.52205927 -25.18839573 105.56045829 -21.50732422 105.56298828 C-20.1927121 105.56614044 -18.87809998 105.5692926 -17.52365112 105.57254028 C-16.09258999 105.57075071 -14.66152916 105.56869981 -13.23046875 105.56640625 C-11.76124048 105.56707999 -10.29201231 105.5680506 -8.82278442 105.56930542 C-5.74789363 105.57077817 -2.67303194 105.56864079 0.40185547 105.56396484 C4.34749723 105.55825775 8.29307111 105.56155541 12.2387104 105.56753731 C15.2703808 105.57114576 18.30203502 105.5700032 21.3337059 105.56740952 C22.78900027 105.56674155 24.24429611 105.56756412 25.69958878 105.56988907 C27.72957583 105.57242127 29.75956803 105.5678792 31.78955078 105.56298828 C32.94552765 105.56219269 34.10150452 105.56139709 35.29251099 105.56057739 C37.97819373 105.61910775 37.97819373 105.61910775 40.01171875 104.43359375 C41.12421161 99.82809658 41.12421161 99.82809658 40.01171875 95.43359375 C39.35171875 95.43359375 38.69171875 95.43359375 38.01171875 95.43359375 C38.01171875 94.77359375 38.01171875 94.11359375 38.01171875 93.43359375 C29.32783371 93.38727914 20.64399112 93.35172904 11.96000957 93.32996941 C7.92780384 93.31952655 3.89568253 93.30535824 -0.13647461 93.28271484 C-4.02680988 93.26100428 -7.91706389 93.24902891 -11.80745506 93.24383926 C-13.29263781 93.24014029 -14.77781605 93.23291721 -16.26296425 93.22213364 C-18.34117922 93.20764227 -20.41905719 93.20561479 -22.49731445 93.20654297 C-24.27269341 93.19988113 -24.27269341 93.19988113 -26.0839386 93.19308472 C-29.1830181 93.21376106 -29.1830181 93.21376106 -31.98828125 95.43359375 Z " fill="#3B7DF3" transform="translate(205.98828125,173.56640625)"/>
<path d="M0 0 C-0.33 1.32 -0.66 2.64 -1 4 C0.65 4.33 2.3 4.66 4 5 C4 5.99 4 6.98 4 8 C4.66 8 5.32 8 6 8 C6 11.3 6 14.6 6 18 C4.68 18.66 3.36 19.32 2 20 C2.33 16.37 2.66 12.74 3 9 C-1.15220609 8.16955878 -4.04027365 7.93964934 -8.1796875 8.12109375 C-9.40212158 8.16959473 -10.62455566 8.2180957 -11.8840332 8.26806641 C-13.20105225 8.32397949 -14.51807129 8.37989258 -15.875 8.4375 C-26.6882946 8.84672841 -37.49010323 9.1173032 -48.3125 9.125 C-49.56184326 9.12653076 -50.81118652 9.12806152 -52.09838867 9.12963867 C-59.19892133 9.10665669 -66.27394158 8.93404712 -73.3671875 8.6328125 C-74.53754799 8.58611923 -74.53754799 8.58611923 -75.73155212 8.53848267 C-79.53502007 8.38659635 -83.33531456 8.21512296 -87.13598633 8.00439453 C-88.51119328 7.94477395 -89.88643617 7.8859748 -91.26171875 7.828125 C-92.46787842 7.7652832 -93.67403809 7.70244141 -94.91674805 7.63769531 C-98.09344916 7.74657906 -98.09344916 7.74657906 -100.43286133 9.84667969 C-102.28972222 11.91189718 -102.28972222 11.91189718 -101.8125 14.625 C-101.06646319 16.97842556 -101.06646319 16.97842556 -100 19 C-104 18 -104 18 -108 17 C-108 13.0974495 -107.88006248 11.33283803 -106 8 C-100.82777266 4.60767161 -96.37720152 4.58679169 -90.41455078 4.65942383 C-89.46757828 4.65898575 -88.52060577 4.65854767 -87.54493713 4.65809631 C-84.42818275 4.66017921 -81.31197243 4.68348702 -78.1953125 4.70703125 C-76.02912693 4.71262897 -73.86293756 4.71689824 -71.69674683 4.71989441 C-66.00522307 4.73132926 -60.31393028 4.76078496 -54.62249756 4.79400635 C-48.81086348 4.82473642 -42.99919196 4.83840604 -37.1875 4.85351562 C-25.79156539 4.88565578 -14.39580193 4.93683587 -3 5 C-3.495 3.02 -3.495 3.02 -4 1 C-2 0 -2 0 0 0 Z " fill="#4F8EF2" transform="translate(276,208)"/>
<path d="M0 0 C1.72719423 -0.00389505 3.45438751 -0.00823136 5.18157959 -0.01298523 C8.79247142 -0.02041993 12.40326545 -0.02017688 16.01416016 -0.01489258 C20.60776861 -0.00911139 25.20097208 -0.02600965 29.7945137 -0.04923725 C33.36021203 -0.0640785 36.92581525 -0.06483211 40.491539 -0.06172752 C42.18336537 -0.06223585 43.87519777 -0.06738024 45.56699371 -0.07753944 C55.61391322 -0.13046148 64.58207873 0.46277886 74.296875 3.30078125 C74.296875 3.63078125 74.296875 3.96078125 74.296875 4.30078125 C71.326875 4.30078125 68.356875 4.30078125 65.296875 4.30078125 C65.296875 3.64078125 65.296875 2.98078125 65.296875 2.30078125 C64.63432205 2.46220108 63.9717691 2.62362091 63.28913879 2.78993225 C59.65474791 3.41040727 56.09544191 3.46115289 52.4206543 3.47436523 C51.64273529 3.48105225 50.86481628 3.48773926 50.06332397 3.49462891 C48.37952399 3.50863957 46.69570546 3.52054617 45.01187706 3.53057671 C42.34181865 3.54705568 39.67189709 3.57029687 37.00190735 3.59547424 C29.41223024 3.66605487 21.82249741 3.72627035 14.23266602 3.77758789 C9.58432898 3.8094905 4.93615068 3.8507931 0.28794289 3.89778328 C-1.47775592 3.91373421 -3.24349121 3.92608742 -5.0092411 3.93469048 C-7.48589705 3.94693073 -9.96218403 3.97111612 -12.4387207 3.99780273 C-13.15951309 3.99839188 -13.88030548 3.99898102 -14.62294006 3.99958801 C-20.79965389 4.08717844 -26.21276443 5.36102254 -32.015625 7.55078125 C-33.3459375 7.92203125 -33.3459375 7.92203125 -34.703125 8.30078125 C-35.693125 7.64078125 -36.683125 6.98078125 -37.703125 6.30078125 C-36.0601991 5.66817801 -34.41357609 5.04517576 -32.765625 4.42578125 C-31.39083984 3.90371094 -31.39083984 3.90371094 -29.98828125 3.37109375 C-19.94506321 0.09898704 -10.4432801 -0.00984708 0 0 Z " fill="#86B3E8" transform="translate(205.703125,173.69921875)"/>
<path d="M0 0 C0.70894409 -0.00335861 1.41788818 -0.00671722 2.14831543 -0.01017761 C4.50327279 -0.01971449 6.85815927 -0.02163209 9.21313477 -0.02270508 C10.84359263 -0.02591578 12.4740502 -0.0292797 14.10450745 -0.03279114 C17.52687244 -0.03878927 20.94921215 -0.04063034 24.37158203 -0.04003906 C28.76463334 -0.0399374 33.15752315 -0.05359026 37.55053616 -0.07081127 C40.91934458 -0.08191056 44.28811371 -0.08395891 47.65693855 -0.08342934 C49.27691263 -0.08461256 50.89688762 -0.0890534 52.5168438 -0.0967617 C54.77957456 -0.10652 57.04195147 -0.10370026 59.3046875 -0.09765625 C60.59406723 -0.09908127 61.88344696 -0.10050629 63.2118988 -0.10197449 C66.21704102 0.14526367 66.21704102 0.14526367 68.21704102 2.14526367 C68.48266602 4.02026367 68.48266602 4.02026367 68.46704102 6.14526367 C68.47477539 7.19713867 68.47477539 7.19713867 68.48266602 8.27026367 C68.21704102 10.14526367 68.21704102 10.14526367 66.21704102 12.14526367 C66.21704102 9.17526367 66.21704102 6.20526367 66.21704102 3.14526367 C65.55704102 3.14526367 64.89704102 3.14526367 64.21704102 3.14526367 C64.21704102 2.48526367 64.21704102 1.82526367 64.21704102 1.14526367 C63.55704102 1.47526367 62.89704102 1.80526367 62.21704102 2.14526367 C60.16986071 2.23172546 58.11978454 2.25232221 56.07080078 2.24291992 C54.77928604 2.2396167 53.4877713 2.23631348 52.15711975 2.23291016 C51.46491899 2.2287912 50.77271824 2.22467224 50.0595417 2.22042847 C47.8952295 2.20768585 45.73097844 2.20115453 43.56663513 2.19628906 C38.19038751 2.18290326 32.81419792 2.15871096 27.43798828 2.1348877 C22.89720425 2.11517201 18.35644182 2.0995239 13.81562614 2.08932495 C11.68234775 2.08283637 9.54915791 2.0703272 7.41590881 2.05761719 C6.12124191 2.05431396 4.82657501 2.05101074 3.49267578 2.04760742 C2.35065201 2.04237061 1.20862823 2.03713379 0.03199768 2.03173828 C-2.86413164 2.01802 -2.86413164 2.01802 -5.78295898 3.14526367 C-5.78295898 6.11526367 -5.78295898 9.08526367 -5.78295898 12.14526367 C-5.12295898 12.47526367 -4.46295898 12.80526367 -3.78295898 13.14526367 C-4.77295898 13.14526367 -5.76295898 13.14526367 -6.78295898 13.14526367 C-6.78295898 12.15526367 -6.78295898 11.16526367 -6.78295898 10.14526367 C-7.44295898 10.14526367 -8.10295898 10.14526367 -8.78295898 10.14526367 C-8.64246381 8.66558043 -8.49541072 7.18651851 -8.34545898 5.70776367 C-8.26424805 4.88405273 -8.18303711 4.0603418 -8.09936523 3.21166992 C-7.40913959 -1.29610003 -3.91321727 0.0115758 0 0 Z " fill="#C1D6F7" transform="translate(179.782958984375,265.854736328125)"/>
<path d="M0 0 C31.35 0 62.7 0 95 0 C95 0.33 95 0.66 95 1 C81.945468 2.62904758 69.14961835 3.29330099 56 3.1875 C54.20581184 3.17994427 52.41162231 3.17270542 50.61743164 3.16577148 C13.94183874 2.97274531 13.94183874 2.97274531 0 1 C0 0.67 0 0.34 0 0 Z " fill="#AAC2E8" transform="translate(177,214)"/>
<path d="M0 0 C9.7709575 -0.06966467 19.54185542 -0.1228947 29.31301117 -0.15543652 C33.85069076 -0.17105893 38.3881998 -0.1922343 42.92578125 -0.22631836 C47.30892095 -0.25903441 51.69189711 -0.27687875 56.07514954 -0.28463173 C57.74321566 -0.29015333 59.41127334 -0.30093553 61.07926941 -0.31719017 C63.42478427 -0.3391278 65.76963261 -0.3419602 68.11523438 -0.34057617 C69.13807526 -0.35675491 69.13807526 -0.35675491 70.18157959 -0.3732605 C75.42986129 -0.33998644 79.27120652 0.87860336 84 3 C85.5 5.1875 85.5 5.1875 86 7 C80.327188 5.19501436 80.327188 5.19501436 78.234375 3.94763184 C75.10356445 2.61980828 72.39557765 2.73256915 69 2.71289062 C68.30358398 2.70605759 67.60716797 2.69922455 66.88964844 2.69218445 C65.38154311 2.67862287 63.87339213 2.66955263 62.36523438 2.66447449 C59.97770237 2.65617247 57.59055048 2.63565652 55.203125 2.61193848 C50.13547315 2.56375917 45.06778348 2.53078717 40 2.5 C34.12683167 2.46432006 28.25385007 2.42240508 22.38085938 2.36405945 C20.02992269 2.34400525 17.67912934 2.33567489 15.328125 2.32775879 C13.88541137 2.31478525 12.44270252 2.30126477 11 2.28710938 C9.1128125 2.27617249 9.1128125 2.27617249 7.1875 2.26501465 C4.19662842 2.01634805 2.50952926 1.57727835 0 0 Z " fill="#AFB8E3" transform="translate(188,316)"/>
<path d="M0 0 C-0.5259375 1.1446875 -0.5259375 1.1446875 -1.0625 2.3125 C-2.32360884 5.04759379 -2.32360884 5.04759379 -1 8 C-4 9 -4 9 -6.875 8.25 C-10.17488175 7.62802999 -10.17488175 7.62802999 -12.75 10.1875 C-14.56313463 12.45391829 -15.91366284 14.33353607 -17 17 C-17.66 17 -18.32 17 -19 17 C-19.2165625 18.11375 -19.2165625 18.11375 -19.4375 19.25 C-21.81731618 23.43847648 -25.6138594 24.38452846 -30 26 C-27.010739 17.15808062 -18.46106208 9.40345503 -11 4 C-10.34 4 -9.68 4 -9 4 C-9 3.34 -9 2.68 -9 2 C-3.375 -1.125 -3.375 -1.125 0 0 Z " fill="#478FF5" transform="translate(169,182)"/>
<path d="M0 0 C3.85025879 0.60355408 6.86101159 1.76772603 10.3125 3.5625 C11.19550781 4.01753906 12.07851563 4.47257813 12.98828125 4.94140625 C13.65214844 5.29074219 14.31601562 5.64007813 15 6 C15 6.66 15 7.32 15 8 C15.721875 8.226875 16.44375 8.45375 17.1875 8.6875 C20.63899403 10.29819721 22.42717067 12.1821393 25 15 C25.61746094 15.67160156 26.23492187 16.34320313 26.87109375 17.03515625 C32 22.72132797 32 22.72132797 32 25 C31.01 25 30.02 25 29 25 C28.67 23.68 28.34 22.36 28 21 C26.35 21 24.7 21 23 21 C22.4465236 18.92446352 22 17.15634036 22 15 C21.2575 15.04125 20.515 15.0825 19.75 15.125 C17 15 17 15 14.9375 13.9375 C13.01163594 12.77543633 13.01163594 12.77543633 10.75 13.375 C10.1725 13.58125 9.595 13.7875 9 14 C9 12.68 9 11.36 9 10 C8.69595322 8.32774271 8.36871088 6.65919896 8 5 C7.236875 5.061875 6.47375 5.12375 5.6875 5.1875 C3 5 3 5 1.1875 3.625 C0 2 0 2 0 0 Z " fill="#4890F7" transform="translate(280,178)"/>
<path d="M0 0 C0.99 0 1.98 0 3 0 C3.144375 1.093125 3.28875 2.18625 3.4375 3.3125 C3.88288104 6.93122987 3.88288104 6.93122987 5 10 C38 10 71 10 105 10 C105 10.33 105 10.66 105 11 C71.01 11 37.02 11 2 11 C1.34 7.37 0.68 3.74 0 0 Z " fill="#487DD9" transform="translate(171,244)"/>
<path d="M0 0 C4.66666667 0.66666667 9.33333333 1.33333333 14 2 C14.495 3.98 14.495 3.98 15 6 C14.34 6.33 13.68 6.66 13 7 C12.12858368 6.69720123 11.25716736 6.39440247 10.35934448 6.08242798 C6.58481118 4.86622033 3.16966292 4.69327394 -0.74951172 4.68115234 C-1.50141281 4.67110672 -2.2533139 4.6610611 -3.02799988 4.65071106 C-5.49522183 4.62000045 -7.96233587 4.60287798 -10.4296875 4.5859375 C-12.14748047 4.56721607 -13.86526435 4.54764193 -15.58303833 4.5272522 C-20.09072492 4.47602793 -24.5984413 4.4363504 -29.10626221 4.39910889 C-33.71154082 4.35900825 -38.31669658 4.3079436 -42.921875 4.2578125 C-51.94783024 4.1611682 -60.97385501 4.07672677 -70 4 C-70 3.67 -70 3.34 -70 3 C-35.35 2.505 -35.35 2.505 0 2 C0 1.34 0 0.68 0 0 Z " fill="#2D54D2" transform="translate(257,312)"/>
<path d="M0 0 C0.33 0 0.66 0 1 0 C1.53430316 2.37266827 2.05262524 4.74706883 2.5625 7.125 C2.71396484 7.79015625 2.86542969 8.4553125 3.02148438 9.140625 C4.18536517 14.66229201 3.76508882 18.70473354 2 24 C-2.75 25.125 -2.75 25.125 -5 24 C-4.49396008 21.83125748 -4.00016187 20.00032373 -3 18 C-2.34 18 -1.68 18 -1 18 C-0.505 9.09 -0.505 9.09 0 0 Z " fill="#254ED2" transform="translate(297,304)"/>
<path d="M0 0 C-0.350625 0.763125 -0.70125 1.52625 -1.0625 2.3125 C-2.32360884 5.04759379 -2.32360884 5.04759379 -1 8 C-4 9 -4 9 -6.875 8.375 C-10.66286434 7.92045628 -11.98897421 8.78601045 -15 11 C-13.79618552 8.50638429 -12.54571278 6.31856917 -11 4 C-10.34 4 -9.68 4 -9 4 C-9 3.34 -9 2.68 -9 2 C-3.375 -1.125 -3.375 -1.125 0 0 Z " fill="#458CF6" transform="translate(169,182)"/>
<path d="M0 0 C1.9375 0.8125 1.9375 0.8125 4 2 C4.33 2.99 4.66 3.98 5 5 C4.34 5 3.68 5 3 5 C3 5.66 3 6.32 3 7 C1.68 7.33 0.36 7.66 -1 8 C-1.0825 8.66 -1.165 9.32 -1.25 10 C-2.24759791 13.99039163 -4.07166683 17.38549643 -6 21 C-7.62321841 16.98622358 -6.26337932 14.37089229 -4.6875 10.5 C-4.23761719 9.3759375 -3.78773438 8.251875 -3.32421875 7.09375 C-2.28952303 4.67640778 -1.21605432 2.3293435 0 0 Z " fill="#5697F1" transform="translate(138,208)"/>
<path d="M0 0 C0.66 0 1.32 0 2 0 C5.73353242 6.93873478 8.70021649 13.20129894 10 21 C9.01 21 8.02 21 7 21 C7 19.02 7 17.04 7 15 C6.34 15 5.68 15 5 15 C5 14.01 5 13.02 5 12 C4.34 11.67 3.68 11.34 3 11 C2.67 11.66 2.34 12.32 2 13 C1.34 13 0.68 13 0 13 C0.08378906 12.39671875 0.16757812 11.7934375 0.25390625 11.171875 C0.35574219 10.37265625 0.45757812 9.5734375 0.5625 8.75 C0.66691406 7.96109375 0.77132813 7.1721875 0.87890625 6.359375 C1.00027349 3.99467126 0.69633257 2.2488963 0 0 Z " fill="#77A9F1" transform="translate(312,203)"/>
<path d="M0 0 C6.2049785 2.5279542 11.09174657 8.66812161 15 14 C15 14.66 15 15.32 15 16 C14.01 16 13.02 16 12 16 C11.67 14.68 11.34 13.36 11 12 C9.35 12 7.7 12 6 12 C5.4465236 9.92446352 5 8.15634036 5 6 C4.01 6 3.02 6 2 6 C1.34 4.02 0.68 2.04 0 0 Z " fill="#73A4EF" transform="translate(297,187)"/>
<path d="M0 0 C0.66 0 1.32 0 2 0 C2 1.98 2 3.96 2 6 C3.65 6 5.3 6 7 6 C7 6.66 7 7.32 7 8 C0.10907206 9.46751243 -4.04604246 8.78003299 -10 5 C-9.34 4.67 -8.68 4.34 -8 4 C-5.96855359 4.93446535 -3.96466413 5.93224776 -2 7 C-2 6.34 -2 5.68 -2 5 C-2.66 4.67 -3.32 4.34 -4 4 C-3.67 3.34 -3.34 2.68 -3 2 C-2.01 2 -1.02 2 0 2 C0 1.34 0 0.68 0 0 Z " fill="#6B87E6" transform="translate(290,322)"/>
<path d="M0 0 C1.32 0.66 2.64 1.32 4 2 C4 2.66 4 3.32 4 4 C4.66 4.33 5.32 4.66 6 5 C5.75 7.875 5.75 7.875 5 11 C2.9375 12.375 2.9375 12.375 1 13 C-0.47964802 8.00618793 -1.33150164 4.99313116 0 0 Z " fill="#316BE4" transform="translate(305,280)"/>
<path d="M0 0 C0.99 0 1.98 0 3 0 C3.144375 1.093125 3.28875 2.18625 3.4375 3.3125 C3.88288104 6.93122987 3.88288104 6.93122987 5 10 C15.56 10 26.12 10 37 10 C37 10.33 37 10.66 37 11 C25.45 11 13.9 11 2 11 C1.34 7.37 0.68 3.74 0 0 Z " fill="#487ED9" transform="translate(171,244)"/>
<path d="M0 0 C1.32 0.33 2.64 0.66 4 1 C4 1.99 4 2.98 4 4 C4.66 4 5.32 4 6 4 C6 7.3 6 10.6 6 14 C4.02 14.99 4.02 14.99 2 16 C2.33 12.37 2.66 8.74 3 5 C0.69 4.34 -1.62 3.68 -4 3 C-2.68 2.67 -1.36 2.34 0 2 C0 1.34 0 0.68 0 0 Z " fill="#82AFEB" transform="translate(276,212)"/>
<path d="M0 0 C0.99 0.33 1.98 0.66 3 1 C2.67 2.32 2.34 3.64 2 5 C2.99 5 3.98 5 5 5 C8 11.5 8 11.5 8 16 C7.34 16 6.68 16 6 16 C4.79994469 13.9021477 3.61497017 11.7979751 2.4375 9.6875 C1.92413086 8.79514648 1.92413086 8.79514648 1.40039062 7.88476562 C0.52233738 6.29717441 -0.24586268 4.65006069 -1 3 C-0.67 2.01 -0.34 1.02 0 0 Z " fill="#608BE4" transform="translate(137,275)"/>
<path d="M0 0 C0.55171875 0.29648438 1.1034375 0.59296875 1.671875 0.8984375 C4.16123288 2.07628804 6.6060884 2.85965717 9.25 3.625 C10.14203125 3.88539063 11.0340625 4.14578125 11.953125 4.4140625 C12.62859375 4.60742188 13.3040625 4.80078125 14 5 C11.03821227 6.67110042 8.62928808 7.32682752 5.25 7.625 C4.45078125 7.69976562 3.6515625 7.77453125 2.828125 7.8515625 C2.22484375 7.90054688 1.6215625 7.94953125 1 8 C0.26919734 6.02253397 -0.39421747 4.01927511 -1 2 C-0.67 1.34 -0.34 0.68 0 0 Z " fill="#3F8AFC" transform="translate(169,224)"/>
<path d="M0 0 C1.8125 0.75 1.8125 0.75 2.8125 2.75 C2.1525 2.75 1.4925 2.75 0.8125 2.75 C0.8125 4.07 0.8125 5.39 0.8125 6.75 C1.4725 6.75 2.1325 6.75 2.8125 6.75 C2.8125 7.41 2.8125 8.07 2.8125 8.75 C-0.59062738 7.69124926 -3.20103231 6.74097846 -6.1875 4.75 C-6.1875 3.76 -6.1875 2.77 -6.1875 1.75 C-3.9127187 0.36888278 -2.68578639 -0.30694702 0 0 Z " fill="#1F4EE2" transform="translate(285.1875,320.25)"/>
<path d="M0 0 C1.85625 0.0309375 1.85625 0.0309375 3.75 0.0625 C3.75 0.3925 3.75 0.7225 3.75 1.0625 C1.77 1.3925 -0.21 1.7225 -2.25 2.0625 C-2.25 2.3925 -2.25 2.7225 -2.25 3.0625 C-4.044375 3.495625 -4.044375 3.495625 -5.875 3.9375 C-8.55086859 4.59107498 -10.97183902 5.33489208 -13.5625 6.3125 C-14.8928125 6.68375 -14.8928125 6.68375 -16.25 7.0625 C-17.24 6.4025 -18.23 5.7425 -19.25 5.0625 C-17.50093469 4.41413958 -15.75070781 3.76891216 -14 3.125 C-13.02546875 2.76535156 -12.0509375 2.40570313 -11.046875 2.03515625 C-7.21902389 0.70396222 -4.05888815 -0.06764814 0 0 Z " fill="#87B4F0" transform="translate(187.25,174.9375)"/>
<path d="M0 0 C4.66666667 0.66666667 9.33333333 1.33333333 14 2 C14.33 3.32 14.66 4.64 15 6 C11.8568669 7.57156655 9.634536 6.11705576 6.375 5.0625 C5.18648438 4.68222656 3.99796875 4.30195313 2.7734375 3.91015625 C1.85820312 3.60980469 0.94296875 3.30945313 0 3 C0 2.01 0 1.02 0 0 Z " fill="#1F53E3" transform="translate(257,312)"/>
<path d="M0 0 C4.97360357 1.27231719 7.67296922 3.08584614 11 7 C11 7.66 11 8.32 11 9 C12.32 9.33 13.64 9.66 15 10 C14.67 10.66 14.34 11.32 14 12 C9.73184401 10.61265978 7.29336833 8.6463822 4.1875 5.4375 C3.39730469 4.63183594 2.60710937 3.82617188 1.79296875 2.99609375 C0 1 0 1 0 0 Z " fill="#708EDF" transform="translate(147,294)"/>
<path d="M0 0 C2.3125 -0.25 2.3125 -0.25 5 0 C6.8125 1.5625 6.8125 1.5625 8 4 C8.1875 7.75 8.1875 7.75 8 11 C7.34 10.67 6.68 10.34 6 10 C6 9.34 6 8.68 6 8 C5.01 8 4.02 8 3 8 C3 6.68 3 5.36 3 4 C2.01 4 1.02 4 0 4 C0 2.68 0 1.36 0 0 Z " fill="#2C6DEA" transform="translate(136,272)"/>
<path d="M0 0 C0.33 0 0.66 0 1 0 C1.05905417 3.29158865 1.09394375 6.58303756 1.125 9.875 C1.14175781 10.7928125 1.15851563 11.710625 1.17578125 12.65625 C1.22051277 19.00812606 0.48851563 24.82610036 -1 31 C-1.33 31 -1.66 31 -2 31 C-2.2226746 29.56465159 -2.42761906 28.12654475 -2.625 26.6875 C-2.74101562 25.88699219 -2.85703125 25.08648437 -2.9765625 24.26171875 C-3 22 -3 22 -1 19 C-0.63566627 16.87662229 -0.63566627 16.87662229 -0.5859375 14.55078125 C-0.54726563 13.70322266 -0.50859375 12.85566406 -0.46875 11.98242188 C-0.4378125 11.10134766 -0.406875 10.22027344 -0.375 9.3125 C-0.33632813 8.41982422 -0.29765625 7.52714844 -0.2578125 6.60742188 C-0.16359782 4.4051538 -0.07798412 2.20289278 0 0 Z " fill="#BAD4F4" transform="translate(324,234)"/>
<path d="M0 0 C0 0.33 0 0.66 0 1 C-2.97 1 -5.94 1 -9 1 C-9 0.34 -9 -0.32 -9 -1 C-9.63292969 -0.83628906 -10.26585937 -0.67257813 -10.91796875 -0.50390625 C-15.06751093 0.17453601 -19.11641498 0.10555375 -23.3125 0.0625 C-24.14845703 0.05798828 -24.98441406 0.05347656 -25.84570312 0.04882812 C-27.89716649 0.03710548 -29.94859273 0.01917203 -32 0 C-32 -0.33 -32 -0.66 -32 -1 C-7.81833844 -2.66156202 -7.81833844 -2.66156202 0 0 Z " fill="#5794EE" transform="translate(280,177)"/>
<path d="M0 0 C3.85025879 0.60355408 6.86101159 1.76772603 10.3125 3.5625 C11.19550781 4.01753906 12.07851563 4.47257813 12.98828125 4.94140625 C13.65214844 5.29074219 14.31601562 5.64007813 15 6 C15 6.66 15 7.32 15 8 C12.69 7.67 10.38 7.34 8 7 C8 6.34 8 5.68 8 5 C7.236875 5.061875 6.47375 5.12375 5.6875 5.1875 C3 5 3 5 1.1875 3.625 C0 2 0 2 0 0 Z " fill="#7DACED" transform="translate(280,178)"/>
<path d="M0 0 C0.66 0.33 1.32 0.66 2 1 C1.67 2.32 1.34 3.64 1 5 C2.1446875 5.185625 2.1446875 5.185625 3.3125 5.375 C6 6 6 6 9 8 C9 8.66 9 9.32 9 10 C4.14036821 9.39254603 0.2594482 7.27241033 -4 5 C-3.01 4.67 -2.02 4.34 -1 4 C-0.26676204 1.98491642 -0.26676204 1.98491642 0 0 Z " fill="#6B8CE2" transform="translate(168,304)"/>
<path d="M0 0 C-0.9375 2.4375 -0.9375 2.4375 -3 5 C-5.98877701 5.7524935 -8.92545953 5.92909865 -12 6 C-11.67 5.34 -11.34 4.68 -11 4 C-10.34 4 -9.68 4 -9 4 C-9 3.34 -9 2.68 -9 2 C-3.375 -1.125 -3.375 -1.125 0 0 Z " fill="#72A6F1" transform="translate(169,182)"/>
<path d="M0 0 C2 2 2 2 2.125 5.125 C2.08375 6.07375 2.0425 7.0225 2 8 C1.01 8.495 1.01 8.495 0 9 C0 6.03 0 3.06 0 0 Z M-1 9 C-0.34 9.66 0.32 10.32 1 11 C-1.97 12.32 -4.94 13.64 -8 15 C-8.66 14.01 -9.32 13.02 -10 12 C-7 11 -4 10 -1 9 Z " fill="#4987F6" transform="translate(282,217)"/>
<path d="M0 0 C1.1171875 1.734375 1.1171875 1.734375 2 4 C1.3203125 6.140625 1.3203125 6.140625 0.125 8.25 C-0.26429688 8.95640625 -0.65359375 9.6628125 -1.0546875 10.390625 C-1.36664063 10.92171875 -1.67859375 11.4528125 -2 12 C-2.15082031 11.38382812 -2.30164063 10.76765625 -2.45703125 10.1328125 C-2.82150723 8.70112989 -3.23274224 7.28061489 -3.6875 5.875 C-3.790625 5.25625 -3.89375 4.6375 -4 4 C-2.66666667 2.66666667 -1.33333333 1.33333333 0 0 Z " fill="#5E8AE8" transform="translate(317,272)"/>
<path d="M0 0 C1.78409802 3.06246747 2.22880021 5.22079273 2.125 8.75 C2.10695313 9.54921875 2.08890625 10.3484375 2.0703125 11.171875 C2.03550781 12.07679688 2.03550781 12.07679688 2 13 C1.01 13.495 1.01 13.495 0 14 C-2.56786548 9.57756501 -1.71809676 6.48856529 -0.5078125 1.79296875 C-0.34023438 1.20128906 -0.17265625 0.60960937 0 0 Z " fill="#78A8ED" transform="translate(322,224)"/>
<path d="M0 0 C0 2 0 4 0 6 C-0.99 6 -1.98 6 -3 6 C-3.2475 6.78375 -3.495 7.5675 -3.75 8.375 C-5.15389099 11.32317108 -6.00675737 11.9024777 -9 13 C-7.47987323 7.59510481 -3.72614782 4.01507372 0 0 Z " fill="#8CB5ED" transform="translate(148,195)"/>
<path d="M0 0 C8.57142857 1.71428571 8.57142857 1.71428571 12 6 C11.01 6.495 11.01 6.495 10 7 C7.87109375 6.07421875 7.87109375 6.07421875 5.4375 4.6875 C4.63183594 4.23761719 3.82617188 3.78773438 2.99609375 3.32421875 C1 2 1 2 0 0 Z " fill="#576FD2" transform="translate(262,316)"/>
<path d="M0 0 C1.32 0.33 2.64 0.66 4 1 C4.93423645 4.01031744 5.04449911 4.86650268 4 8 C2.68 8 1.36 8 0 8 C0 5.36 0 2.72 0 0 Z " fill="#2A69E7" transform="translate(242,280)"/>
<path d="M0 0 C0.99 0.33 1.98 0.66 3 1 C2.67 4.3 2.34 7.6 2 11 C2.66 11.33 3.32 11.66 4 12 C3.01 12 2.02 12 1 12 C1 11.01 1 10.02 1 9 C0.34 9 -0.32 9 -1 9 C-0.67 6.03 -0.34 3.06 0 0 Z " fill="#6994E2" transform="translate(172,267)"/>
<path d="M0 0 C0.33 0 0.66 0 1 0 C1.50610724 6.07328688 0.04157942 9.77228537 -3 15 C-4.43410153 11.21180727 -3.51009497 8.93478721 -2.0625 5.25 C-1.49208984 3.77273437 -1.49208984 3.77273437 -0.91015625 2.265625 C-0.60980469 1.51796875 -0.30945313 0.7703125 0 0 Z " fill="#9CC0EE" transform="translate(135,214)"/>
<path d="M0 0 C0.66 0 1.32 0 2 0 C2.33 1.32 2.66 2.64 3 4 C3.99 4 4.98 4 6 4 C6.66 5.65 7.32 7.3 8 9 C7.34 9.66 6.68 10.32 6 11 C5.34 10.67 4.68 10.34 4 10 C3.26924352 7.6859378 2.59861742 5.35171131 2 3 C1.34 3 0.68 3 0 3 C0 2.01 0 1.02 0 0 Z " fill="#458FFA" transform="translate(306,199)"/>
<path d="M0 0 C1.73465985 2.65300918 2.01580962 3.84506573 1.6875 7.0625 C1 10 1 10 0 13 C-0.66 13 -1.32 13 -2 13 C-2 11.02 -2 9.04 -2 7 C-1.34 7 -0.68 7 0 7 C0 4.69 0 2.38 0 0 Z " fill="#8399E3" transform="translate(299,315)"/>
<path d="M0 0 C1.32 0.66 2.64 1.32 4 2 C2.60667426 5.36720387 1.0210714 6.9859524 -2 9 C-2.33 7.68 -2.66 6.36 -3 5 C-2.01 5 -1.02 5 0 5 C0 3.35 0 1.7 0 0 Z " fill="#698EE5" transform="translate(304,290)"/>
<path d="M0 0 C0.33 0 0.66 0 1 0 C1 1.65 1 3.3 1 5 C1.66 5 2.32 5 3 5 C3 5.99 3 6.98 3 8 C4.65 8.33 6.3 8.66 8 9 C7.67 9.99 7.34 10.98 7 12 C2.4137931 10.55172414 2.4137931 10.55172414 0.6875 8.25 C-0.17450101 5.42890579 -0.13329111 2.93240449 0 0 Z " fill="#326AE0" transform="translate(170,271)"/>
<path d="M0 0 C0.99 0 1.98 0 3 0 C3.144375 1.093125 3.28875 2.18625 3.4375 3.3125 C3.88288104 6.93122987 3.88288104 6.93122987 5 10 C5.66 10.33 6.32 10.66 7 11 C5.35 11 3.7 11 2 11 C1.34 7.37 0.68 3.74 0 0 Z " fill="#76A5E9" transform="translate(171,244)"/>
<path d="M0 0 C1.32 0 2.64 0 4 0 C4 1.98 4 3.96 4 6 C2.35 6 0.7 6 -1 6 C-0.67 4.02 -0.34 2.04 0 0 Z " fill="#418CF9" transform="translate(315,218)"/>
<path d="M0 0 C0.66 0 1.32 0 2 0 C2.66 2.97 3.32 5.94 4 9 C3.01 9 2.02 9 1 9 C1 7.02 1 5.04 1 3 C0.34 3 -0.32 3 -1 3 C-0.67 2.01 -0.34 1.02 0 0 Z " fill="#6C9CED" transform="translate(318,215)"/>
<path d="M0 0 C0.99 0.33 1.98 0.66 3 1 C3.144375 2.11375 3.28875 3.2275 3.4375 4.375 C3.78372035 7.82142047 3.78372035 7.82142047 5 10 C1.125 9.125 1.125 9.125 0 8 C-0.14115161 5.32941149 -0.04247107 2.67567762 0 0 Z " fill="#7AAAEE" transform="translate(171,217)"/>
<path d="M0 0 C3.875 0.875 3.875 0.875 5 2 C5.27314815 7.73611111 5.27314815 7.73611111 5 10 C4.34 10.66 3.68 11.32 3 12 C3 9.03 3 6.06 3 3 C2.34 3 1.68 3 1 3 C0.67 2.01 0.34 1.02 0 0 Z " fill="#81A9E8" transform="translate(243,266)"/>
<path d="M0 0 C5.445 1.485 5.445 1.485 11 3 C7 5 7 5 4.375 4.875 C2 4 2 4 0 0 Z " fill="#4786EE" transform="translate(172,226)"/>
<path d="M0 0 C3.36591866 1.44253657 5.51047079 3.33264727 8 6 C6 7 6 7 4 6.9375 C2 6 2 6 0.75 2.9375 C0.5025 1.968125 0.255 0.99875 0 0 Z " fill="#9ABFF1" transform="translate(297,187)"/>
<path d="M0 0 C1.32 0 2.64 0 4 0 C3.67 3.3 3.34 6.6 3 10 C2.67 10 2.34 10 2 10 C2 8.02 2 6.04 2 4 C1.34 4 0.68 4 0 4 C0 2.68 0 1.36 0 0 Z " fill="#7A9AE7" transform="translate(296,300)"/>
<path d="M0 0 C1.41750563 0.11509661 2.83401169 0.24253658 4.25 0.375 C5.03890625 0.44460937 5.8278125 0.51421875 6.640625 0.5859375 C9 1 9 1 13 3 C10.03 3 7.06 3 4 3 C4 2.34 4 1.68 4 1 C2.68 0.67 1.36 0.34 0 0 Z " fill="#AACCF3" transform="translate(267,175)"/>
<path d="M0 0 C0.66 0.33 1.32 0.66 2 1 C0.02 3.97 0.02 3.97 -2 7 C-3.32 6.67 -4.64 6.34 -6 6 C-4.02 4.02 -2.04 2.04 0 0 Z " fill="#9BC1F1" transform="translate(155,188)"/>
<path d="M0 0 C3 1 3 1 3 1 Z M-1 1 C-0.34 2.32 0.32 3.64 1 5 C-0.65 5 -2.3 5 -4 5 C-4.33 4.01 -4.66 3.02 -5 2 C-3.68 1.67 -2.36 1.34 -1 1 Z " fill="#255FE5" transform="translate(301,294)"/>
<path d="M0 0 C1.32 0.33 2.64 0.66 4 1 C3.67 2.32 3.34 3.64 3 5 C0.69 4.34 -1.62 3.68 -4 3 C-2.68 2.67 -1.36 2.34 0 2 C0 1.34 0 0.68 0 0 Z " fill="#71A3EB" transform="translate(276,212)"/>
<path d="M0 0 C6.75 1.875 6.75 1.875 9 3 C9 3.66 9 4.32 9 5 C5.22454612 3.90931332 2.52956528 3.0916909 0 0 Z " fill="#2846BD" transform="translate(279,324)"/>
</svg>
