<?xml version="1.0" encoding="UTF-8"?>
<svg version="1.1" xmlns="http://www.w3.org/2000/svg" width="527" height="474">
<path d="M0 0 C1.22913025 0.7708914 2.45828962 1.54173638 3.6875 2.3125 C4.8321875 3.1478125 4.8321875 3.1478125 6 4 C6 4.66 6 5.32 6 6 C6.804375 6.3403125 6.804375 6.3403125 7.625 6.6875 C10.82460161 8.45570089 13.29037223 10.53670203 16 13 C16 13.66 16 14.32 16 15 C16.99 15.33 17.98 15.66 19 16 C23 20.45714286 23 20.45714286 23 23 C23.66 23 24.32 23 25 23 C26.53309221 25.11741419 27.93630245 27.22090448 29.3125 29.4375 C29.71621826 30.07913086 30.11993652 30.72076172 30.53588867 31.38183594 C43.36772994 51.91071772 48.21120225 71.62386142 48.09765625 95.765625 C48.09553383 97.50474152 48.09553383 97.50474152 48.09336853 99.2789917 C48.08782776 102.93602214 48.07528675 106.59298846 48.0625 110.25 C48.05747733 112.74869702 48.05291578 115.24739502 48.04882812 117.74609375 C48.03787782 123.83075058 48.02119996 129.9153707 48 136 C48.94842773 135.98952637 49.89685547 135.97905273 50.87402344 135.96826172 C54.40008991 135.93413292 57.92598029 135.90907832 61.45214844 135.89013672 C62.97691623 135.88009256 64.50166484 135.86645469 66.02636719 135.84912109 C68.22075138 135.82480262 70.41488042 135.81350111 72.609375 135.8046875 C73.92905273 135.79421387 75.24873047 135.78374023 76.60839844 135.77294922 C81.60349741 136.10734614 81.60349741 136.10734614 84 138 C87.34712876 143.24435753 87.4289998 147.65140834 87.38818359 153.66357422 C87.39606903 155.09935822 87.39606903 155.09935822 87.40411377 156.56414795 C87.41730724 159.72782774 87.40856518 162.89100255 87.3984375 166.0546875 C87.40046139 168.27548315 87.40337545 170.49627815 87.40713501 172.71707153 C87.41155999 177.38257139 87.40513259 182.04789908 87.39111328 186.71337891 C87.3742006 192.62315401 87.38374638 198.53251491 87.40183067 204.44227409 C87.41281816 209.03955032 87.40915172 213.63673311 87.4014473 218.2340126 C87.39947686 220.40797095 87.40179036 222.58193842 87.40888596 224.75588608 C87.46218795 245.7143066 86.89503233 268.31096468 79 288 C78.58621094 289.19238281 78.17242187 290.38476562 77.74609375 291.61328125 C74.99088602 299.40188339 71.78327932 306.74587806 67.9375 314.0625 C67.5262085 314.84729736 67.11491699 315.63209473 66.69116211 316.44067383 C64.1141449 321.23609088 61.37195648 325.71824076 58 330 C57.34 330 56.68 330 56 330 C55.6596875 331.051875 55.6596875 331.051875 55.3125 332.125 C53.66158712 335.74128535 51.7091165 338.08769976 49 341 C48.34 341 47.68 341 47 341 C47 341.66 47 342.32 47 343 C46.34 343 45.68 343 45 343 C45 343.66 45 344.32 45 345 C44.34 345 43.68 345 43 345 C42.6596875 345.8353125 42.6596875 345.8353125 42.3125 346.6875 C40.62449964 349.66159588 38.53323483 351.72008865 36 354 C35.34 354 34.68 354 34 354 C34 354.66 34 355.32 34 356 C32.35 356.66 30.7 357.32 29 358 C29 358.66 29 359.32 29 360 C27.57421875 361.2890625 27.57421875 361.2890625 25.6875 362.625 C25.07261719 363.07101562 24.45773437 363.51703125 23.82421875 363.9765625 C22 365 22 365 19 365 C19 365.66 19 366.32 19 367 C10.16805075 372.0864049 1.40891019 377.04146322 -8 381 C-9.15435547 381.51820313 -9.15435547 381.51820313 -10.33203125 382.046875 C-43.88609564 396.51463079 -85.72140907 394.47300596 -119.1875 381.25 C-130.06811299 376.85635446 -140.17037977 371.78750295 -149.875 365.1875 C-150.93835571 364.46687378 -150.93835571 364.46687378 -152.02319336 363.73168945 C-153.72270062 362.54382554 -155.36752186 361.27842119 -157 360 C-157 359.34 -157 358.68 -157 358 C-157.86818359 357.60941406 -157.86818359 357.60941406 -158.75390625 357.2109375 C-161.15195442 355.91807675 -162.92218697 354.45274925 -164.9375 352.625 C-167.14843643 350.63925154 -169.32781069 348.74842435 -171.6875 346.9375 C-174.57355903 344.51945054 -176.71822585 341.99890316 -179 339 C-179 338.34 -179 337.68 -179 337 C-179.66 337 -180.32 337 -181 337 C-181.66 335.35 -182.32 333.7 -183 332 C-183.66 332 -184.32 332 -185 332 C-186.43323355 330.0359392 -187.71061833 328.05820553 -189 326 C-189.51820313 325.23429687 -190.03640625 324.46859375 -190.5703125 323.6796875 C-200.7831286 308.33756466 -208.31259612 290.05478851 -212 272 C-212.24275052 270.87147614 -212.24275052 270.87147614 -212.49040508 269.72015381 C-213.91263427 262.6502152 -214.29106253 255.89020471 -214.2746582 248.69140625 C-214.27976913 247.5144368 -214.28488007 246.33746735 -214.29014587 245.12483215 C-214.30394279 241.27066844 -214.30309393 237.41668531 -214.30078125 233.5625 C-214.30309429 231.55301457 -214.30659794 229.5435335 -214.310188 227.53404999 C-214.32122937 221.23540961 -214.32174799 214.93682893 -214.31567383 208.63818359 C-214.30960848 202.14469617 -214.32202174 195.65142402 -214.3432439 189.15797329 C-214.36084009 183.56792797 -214.36686527 177.97795138 -214.36360615 172.38787937 C-214.36179338 169.05507684 -214.36574373 165.72246324 -214.37832069 162.38967896 C-214.39059978 158.68409316 -214.38394678 154.97901462 -214.37231445 151.2734375 C-214.37995819 150.17006546 -214.38760193 149.06669342 -214.39547729 147.92988586 C-214.38846298 146.92354599 -214.38144867 145.91720612 -214.3742218 144.88037109 C-214.37438954 144.00512787 -214.37455729 143.12988464 -214.37473011 142.2281189 C-213.91583515 139.49956174 -213.18516425 138.65120785 -211 137 C-207.46173745 135.82057915 -204.65851274 135.88710811 -200.92578125 135.90234375 C-199.90003242 135.90446617 -199.90003242 135.90446617 -198.8535614 135.90663147 C-196.67316278 135.91222124 -194.49286749 135.92477178 -192.3125 135.9375 C-190.83268378 135.94251633 -189.35286594 135.947079 -187.87304688 135.95117188 C-184.24866443 135.96218729 -180.6243423 135.97944488 -177 136 C-177.00666183 135.39073166 -177.01332367 134.78146332 -177.02018738 134.1537323 C-177.08746427 127.71151098 -177.13217583 121.26939212 -177.16479492 114.8269043 C-177.17971968 112.43461035 -177.20006677 110.04234295 -177.22631836 107.65014648 C-177.42587171 88.97430039 -177.04962997 71.04269058 -170.1875 53.4375 C-169.86974609 52.55771484 -169.55199219 51.67792969 -169.22460938 50.77148438 C-165.97125498 42.0980032 -161.27892638 34.47430879 -155.75 27.0625 C-153.77385798 24.40083585 -151.83927894 21.75891841 -150 19 C-149.34 19 -148.68 19 -148 19 C-148 18.34 -148 17.68 -148 17 C-147.34 17 -146.68 17 -146 17 C-146 16.34 -146 15.68 -146 15 C-145.34 15 -144.68 15 -144 15 C-143.731875 14.360625 -143.46375 13.72125 -143.1875 13.0625 C-142 11 -142 11 -139 10 C-139 9.34 -139 8.68 -139 8 C-138.34 8 -137.68 8 -137 8 C-137 7.34 -137 6.68 -137 6 C-134.72575469 4.18182811 -132.46181088 2.51504231 -130.0625 0.875 C-129.34827881 0.38580078 -128.63405762 -0.10339844 -127.89819336 -0.60742188 C-89.277745 -26.34597615 -38.41472766 -26.18317259 0 0 Z M-110 54 C-110.60070312 54.72445312 -111.20140625 55.44890625 -111.8203125 56.1953125 C-121.81649508 69.30718835 -123.96397628 82.04749595 -124 98 C-124.0250489 99.8463679 -124.0511148 101.69272225 -124.078125 103.5390625 C-124.1844584 114.43263934 -123.68240481 125.08152305 -123 136 C-83.73 136 -44.46 136 -4 136 C-2.07729477 98.25844212 -2.07729477 98.25844212 -10 66 C-10.66 66 -11.32 66 -12 66 C-12.04125 65.34 -12.0825 64.68 -12.125 64 C-13.38694188 59.67334212 -15.93008609 56.28163211 -19 53 C-19.66 53 -20.32 53 -21 53 C-21.22300781 52.4225 -21.44601562 51.845 -21.67578125 51.25 C-24.40565714 46.6116268 -29.62371456 43.97071831 -34 41 C-35.0725 40.2575 -36.145 39.515 -37.25 38.75 C-61.28796655 25.99051065 -92.96459198 33.19639113 -110 54 Z M-137.79296875 212.2109375 C-143.09177607 219.25261963 -146.01910784 226.79345847 -149 235 C-149.3196875 235.80308594 -149.639375 236.60617187 -149.96875 237.43359375 C-154.68556658 249.9095736 -154.91080344 264.01665539 -152.875 277.0625 C-152.68466187 278.28271851 -152.68466187 278.28271851 -152.49047852 279.52758789 C-150.83608911 289.14811012 -147.53105412 298.34980578 -143 307 C-142.34 307 -141.68 307 -141 307 C-140.92265625 307.53753906 -140.8453125 308.07507813 -140.765625 308.62890625 C-139.70297063 311.91988178 -137.8412699 314.19184267 -135.75 316.9375 C-134.98171875 317.95714844 -134.2134375 318.97679687 -133.421875 320.02734375 C-129.68712164 324.61145231 -125.61325168 328.33305636 -121 332 C-120.360625 332.66 -119.72125 333.32 -119.0625 334 C-115.7479191 337.21413905 -112.7306376 340 -108 340 C-108 340.66 -108 341.32 -108 342 C-88.12059218 353.17644126 -65.14347206 355.29649458 -43 351 C-41.51693359 350.71962891 -41.51693359 350.71962891 -40.00390625 350.43359375 C-27.05074432 347.21635847 -11.90801163 338.95008092 -3 329 C-2.36835938 328.37996094 -1.73671875 327.75992188 -1.0859375 327.12109375 C3.31913015 322.86693339 3.31913015 322.86693339 7 318 C7 317.34 7 316.68 7 316 C7.66 316 8.32 316 9 316 C10.4635963 313.35446167 11.9151366 310.70339137 13.3515625 308.04296875 C14.32660553 306.24306704 15.31582954 304.45053048 16.3359375 302.67578125 C26.48631709 284.1529548 28.59585484 260.62171048 23 240.3125 C20.38535416 231.75046938 16.27587556 223.83244496 12 216 C11.67 215.34 11.34 214.68 11 214 C10.34 214 9.68 214 9 214 C8.71125 213.236875 8.4225 212.47375 8.125 211.6875 C7.03730987 208.84970692 7.03730987 208.84970692 5 206 C4.34 206 3.68 206 3 206 C2.6596875 204.824375 2.6596875 204.824375 2.3125 203.625 C1.21875 200.78125 1.21875 200.78125 -1.625 199.6875 C-2.800625 199.3471875 -2.800625 199.3471875 -4 199 C-4 198.34 -4 197.68 -4 197 C-4.66 197 -5.32 197 -6 197 C-6 196.34 -6 195.68 -6 195 C-7.48636758 193.6393991 -7.48636758 193.6393991 -9.375 192.375 C-10.00148438 191.92898437 -10.62796875 191.48296875 -11.2734375 191.0234375 C-12.95222643 189.83003031 -12.95222643 189.83003031 -15 190 C-15 189.34 -15 188.68 -15 188 C-17.70067637 186.56698805 -20.40930411 185.15406319 -23.125 183.75 C-23.86621094 183.35425781 -24.60742188 182.95851562 -25.37109375 182.55078125 C-37.12926922 176.52348122 -48.64375789 174.3074245 -61.70361328 174.42358398 C-63.86778021 174.43745373 -66.02760033 174.40321738 -68.19140625 174.36523438 C-96.90287882 174.20722315 -120.27293489 190.60671274 -137.79296875 212.2109375 Z " fill="#050505" transform="translate(327,57)"/>
<path d="M0 0 C3.3 0 6.6 0 10 0 C10 2.31 10 4.62 10 7 C11.093125 6.9175 12.18625 6.835 13.3125 6.75 C22.07611654 6.76551083 29.97886853 11.09124333 37 16 C35.39848427 20.65895487 33.21952664 25.24083679 30 29 C27.1875 29.5 27.1875 29.5 25 29 C25 28.34 25 27.68 25 27 C24.443125 26.87625 23.88625 26.7525 23.3125 26.625 C21 26 21 26 18.625 25 C15.51442314 23.71606099 15.51442314 23.71606099 10 23 C10.33 30.26 10.66 37.52 11 45 C12.93875 45.53625 14.8775 46.0725 16.875 46.625 C24.40284998 48.96462622 32.3990088 51.59771691 36.5625 58.75 C37.036875 59.8225 37.51125 60.895 38 62 C38.33 62.66 38.66 63.32 39 64 C39.15159403 66.76367582 39.23141393 69.48532157 39.25 72.25 C39.270625 73.00152344 39.29125 73.75304687 39.3125 74.52734375 C39.36731742 82.37993865 36.23288145 87.36458921 31 93 C30.34 93 29.68 93 29 93 C29 93.66 29 94.32 29 95 C22.5849443 97.87940913 17.02952752 99.5464821 10 100 C10.01160156 100.63808594 10.02320313 101.27617187 10.03515625 101.93359375 C10.04417969 102.75988281 10.05320312 103.58617187 10.0625 104.4375 C10.07410156 105.26121094 10.08570313 106.08492188 10.09765625 106.93359375 C10 109 10 109 9 110 C7.1875 110.1328125 7.1875 110.1328125 5 110.125 C4.278125 110.12757813 3.55625 110.13015625 2.8125 110.1328125 C1 110 1 110 0 109 C-0.07205511 107.31391034 -0.08386068 105.62499341 -0.0625 103.9375 C-0.05347656 103.01839844 -0.04445313 102.09929687 -0.03515625 101.15234375 C-0.02355469 100.44207031 -0.01195312 99.73179687 0 99 C-0.9075 99.0825 -1.815 99.165 -2.75 99.25 C-12.90224856 99.18847122 -21.22653995 93.98866182 -29 88 C-29.99 87.34 -30.98 86.68 -32 86 C-32 85.01 -32 84.02 -32 83 C-31.34 83 -30.68 83 -30 83 C-30 82.34 -30 81.68 -30 81 C-29.34 81 -28.68 81 -28 81 C-27.5978125 80.13375 -27.5978125 80.13375 -27.1875 79.25 C-25.98280141 76.9674132 -24.59201885 75.0262058 -23 73 C-20.26465145 73.40523682 -18.97292825 74.02243088 -16.8125 75.8125 C-11.70474928 79.78519501 -6.31041554 81.73791689 0 83 C0 75.41 0 67.82 0 60 C-2.97 59.34 -5.94 58.68 -9 58 C-16.56995561 54.99247709 -23.74700059 51.26877014 -27.26953125 43.60546875 C-29.23139486 36.60780549 -29.43524576 28.02356853 -26.25 21.375 C-25.53832554 20.22537203 -24.79103341 19.09653597 -24 18 C-23.38125 17.0925 -22.7625 16.185 -22.125 15.25 C-16.13607633 8.9087867 -9.43316451 7.01197974 -1 6 C-0.67 4.02 -0.34 2.04 0 0 Z M-8 25 C-10.36865914 27.8271093 -10.98558726 29.30818833 -11.0625 33 C-9.62354631 37.06292806 -7.51344773 38.58881038 -4 41 C-2.68 41.33 -1.36 41.66 0 42 C0 35.4 0 28.8 0 22 C-3.20871058 22 -5.27263766 23.38584678 -8 25 Z M10 63 C10 69.93 10 76.86 10 84 C17.52227043 82.78344645 17.52227043 82.78344645 20.5 79.75 C22.28078272 76.48523168 22.46838793 74.66903875 22 71 C20.68689957 67.53155795 19.34196312 66.29811527 16 64.75 C14.948125 64.24726563 14.948125 64.24726563 13.875 63.734375 C12.02523826 62.87843603 12.02523826 62.87843603 10 63 Z " fill="#131313" transform="translate(259,266)"/>
<path d="M0 0 C1.32 0.33 2.64 0.66 4 1 C-0.625 5 -0.625 5 -4 5 C-2.68 3.35 -1.36 1.7 0 0 Z " fill="#787878" transform="translate(236,339)"/>
</svg>
