<?xml version="1.0" encoding="UTF-8"?>
<svg version="1.1" xmlns="http://www.w3.org/2000/svg" width="556" height="448">
<path d="M0 0 C0.76119141 -0.02215576 1.52238281 -0.04431152 2.30664062 -0.06713867 C8.48613252 -0.0432348 13.75192419 1.69708543 18.37207031 5.92016602 C22.87732727 10.88121704 23.32442238 15.99656945 23.1796875 22.4453125 C22.55189946 26.81700012 20.83382485 30.26022591 17.75 33.4375 C17.09 33.4375 16.43 33.4375 15.75 33.4375 C15.42 34.4275 15.09 35.4175 14.75 36.4375 C10.5737852 38.80349241 6.29747283 38.71317194 1.625 38.8125 C-22.55328168 39.77645122 -45.88313613 47.895482 -65.25 62.4375 C-65.96929687 62.94152344 -66.68859375 63.44554687 -67.4296875 63.96484375 C-71.50664468 66.86486801 -74.73848255 69.90256066 -77.88671875 73.7890625 C-79.25 75.4375 -79.25 75.4375 -81.75 77.875 C-101.36206785 97.97736954 -110.82085687 127.94939931 -110.60375977 155.578125 C-110.38636484 164.06967913 -109.26391017 172.19186781 -107.25 180.4375 C-107.00854248 181.43209229 -107.00854248 181.43209229 -106.76220703 182.44677734 C-103.03586163 197.12664525 -96.08072638 210.41637055 -86.78125 222.3359375 C-85.25 224.4375 -85.25 224.4375 -84.25 227.4375 C-83.59 227.4375 -82.93 227.4375 -82.25 227.4375 C-81.92 228.0975 -81.59 228.7575 -81.25 229.4375 C-81.2406543 228.63119141 -81.23130859 227.82488281 -81.22167969 226.99414062 C-81.1676896 223.30799415 -81.08409552 219.62307759 -81 215.9375 C-80.98582031 214.6690625 -80.97164063 213.400625 -80.95703125 212.09375 C-80.753682 204.28513887 -80.43689636 197.80238602 -74.76831055 191.89282227 C-70.39943938 188.04349253 -67.05066993 187.28538448 -61.375 187.25 C-60.34632813 187.23582031 -59.31765625 187.22164062 -58.2578125 187.20703125 C-54.05740391 187.52888074 -51.37379347 188.39555763 -48.265625 191.27734375 C-47.68296875 191.96957031 -47.1003125 192.66179687 -46.5 193.375 C-45.90703125 194.06464844 -45.3140625 194.75429687 -44.703125 195.46484375 C-41.81617313 199.38395852 -42.09022771 203.35699202 -42.07299805 208.01074219 C-42.06642685 208.78022186 -42.05985565 209.54970154 -42.05308533 210.34249878 C-42.03337056 212.88979187 -42.02169322 215.43702603 -42.01171875 217.984375 C-42.00764322 218.85549171 -42.0035677 219.72660843 -41.99936867 220.62412262 C-41.97851474 225.23574079 -41.96421063 229.84732927 -41.95483398 234.45898438 C-41.9437767 239.21483522 -41.90938286 243.97021727 -41.86966228 248.72590256 C-41.84347703 252.38914847 -41.83514042 256.05228305 -41.83155251 259.71561432 C-41.82669073 261.46824557 -41.81508838 263.22087199 -41.79651451 264.97341156 C-41.77208393 267.43154194 -41.77309491 269.88846428 -41.7800293 272.34667969 C-41.76721924 273.0648587 -41.75440918 273.78303772 -41.74121094 274.52297974 C-41.80706422 280.95692678 -44.11345778 284.88743348 -48.1875 289.75 C-52.74663997 293.48020543 -57.33335175 293.735229 -63.03442383 293.72802734 C-63.80258926 293.73474457 -64.5707547 293.74146179 -65.36219788 293.74838257 C-67.89387538 293.76733178 -70.4252873 293.77128533 -72.95703125 293.7734375 C-74.7243409 293.77986808 -76.49164948 293.78659664 -78.25895691 293.79360962 C-81.96180691 293.80557505 -85.66456367 293.80929125 -89.36743164 293.80810547 C-94.09850101 293.80790244 -98.82896861 293.83519104 -103.55989552 293.86964989 C-107.21032932 293.89195383 -110.86061917 293.89594192 -114.51111412 293.89488602 C-116.25453449 293.89723723 -117.99795912 293.90603363 -119.74131203 293.92155075 C-122.18709317 293.94128009 -124.63158804 293.93534618 -127.07739258 293.92333984 C-127.78883423 293.93457886 -128.50027588 293.94581787 -129.23327637 293.95739746 C-135.2699095 293.88258451 -140.33225835 291.98728982 -144.8704195 288.02142906 C-148.7126461 283.61007765 -149.53211607 278.57982143 -149.25 272.9375 C-148.57195331 267.68810624 -147.03069041 263.2451312 -143.25 259.4375 C-138.45149445 256.40574907 -134.38465291 255.92156393 -128.875 255.75 C-128.15828125 255.71583984 -127.4415625 255.68167969 -126.703125 255.64648438 C-121.88374402 255.43335291 -117.07347884 255.41027946 -112.25 255.4375 C-113.29539719 253.18587528 -114.36156417 251.29160839 -115.875 249.3125 C-117.25 247.4375 -117.25 247.4375 -117.25 245.4375 C-117.91 245.4375 -118.57 245.4375 -119.25 245.4375 C-121.86992651 241.96786759 -124.00759118 238.15866267 -126.25 234.4375 C-127.20132813 232.91576172 -127.20132813 232.91576172 -128.171875 231.36328125 C-136.38963881 217.73822886 -143.4627948 202.16368216 -146.25 186.4375 C-146.43949219 185.39851562 -146.62898438 184.35953125 -146.82421875 183.2890625 C-148.0950094 175.70036941 -148.89845051 168.12253541 -149.25 160.4375 C-149.30099854 159.38079102 -149.30099854 159.38079102 -149.35302734 158.30273438 C-150.18545307 138.51043947 -147.0684332 119.03502361 -140.25 100.4375 C-140.01522949 99.78958496 -139.78045898 99.14166992 -139.53857422 98.47412109 C-136.87822028 91.20841867 -133.93655317 84.3216168 -129.7421875 77.78125 C-128.5789605 75.95419189 -127.49703068 74.0752952 -126.44921875 72.1796875 C-124.01947257 67.89826746 -121.13896071 63.99536666 -118.1875 60.0625 C-117.65833984 59.33933594 -117.12917969 58.61617187 -116.58398438 57.87109375 C-116.07029297 57.18402344 -115.55660156 56.49695313 -115.02734375 55.7890625 C-114.33499634 54.85827881 -114.33499634 54.85827881 -113.62866211 53.90869141 C-112.25 52.4375 -112.25 52.4375 -109.25 51.4375 C-108.56513275 50.11342331 -107.90129797 48.77840759 -107.25 47.4375 C-105.25 45.1875 -105.25 45.1875 -103.25 43.4375 C-102.59 43.4375 -101.93 43.4375 -101.25 43.4375 C-101.02183594 42.86515625 -100.79367188 42.2928125 -100.55859375 41.703125 C-89.33206547 22.26615066 -56.2781208 10.87738902 -36.125 4.8125 C-24.34046411 1.78860882 -12.15746589 0.18679691 0 0 Z " fill="#060606" transform="translate(258.25,56.5625)"/>
<path d="M0 0 C1.69433311 -0.00269928 3.3886647 -0.00658531 5.08299255 -0.01159668 C8.62082783 -0.01746968 12.15825711 -0.00899922 15.69604492 0.00976562 C20.21408884 0.03257169 24.73118297 0.01940809 29.24919224 -0.00452423 C32.74353603 -0.0190271 36.23765722 -0.01435606 39.73200798 -0.00401306 C41.39725802 -0.00135906 43.06252876 -0.00456848 44.72775459 -0.01393127 C62.65120128 -0.0926229 62.65120128 -0.0926229 69.05690002 5.94299316 C73.52536604 10.89528752 75.10841295 15.56928006 74.93359375 22.125 C74.00460427 28.08601584 70.96073228 32.1919791 66.68359375 36.27734375 C61.49949186 39.81607751 55.65222913 39.06661742 49.62109375 38.84375 C48.46029297 38.82119141 47.29949219 38.79863281 46.10351562 38.77539062 C43.25386209 38.71675578 40.40691225 38.63473837 37.55859375 38.53125 C38.30109375 39.541875 39.04359375 40.5525 39.80859375 41.59375 C52.5012884 59.38185616 61.15048939 81.02659149 64.55859375 102.53125 C64.86410156 104.078125 64.86410156 104.078125 65.17578125 105.65625 C69.51641868 129.91625097 66.9205087 156.39865317 58.55859375 179.53125 C58.14351562 180.75585938 57.7284375 181.98046875 57.30078125 183.2421875 C55.44578806 188.64919258 53.61421964 193.66895585 50.55859375 198.53125 C49.63594804 200.25723379 48.71947982 201.98653127 47.80859375 203.71875 C43.17115766 212.23975326 37.47054314 219.79537615 31.35546875 227.3046875 C30.17138624 228.77192018 29.03361568 230.27794211 27.94921875 231.8203125 C27.4903125 232.38492188 27.03140625 232.94953125 26.55859375 233.53125 C25.89859375 233.53125 25.23859375 233.53125 24.55859375 233.53125 C24.22859375 234.52125 23.89859375 235.51125 23.55859375 236.53125 C22.89859375 236.53125 22.23859375 236.53125 21.55859375 236.53125 C21.55859375 237.19125 21.55859375 237.85125 21.55859375 238.53125 C20.89859375 238.53125 20.23859375 238.53125 19.55859375 238.53125 C19.22859375 239.52125 18.89859375 240.51125 18.55859375 241.53125 C17.89859375 241.53125 17.23859375 241.53125 16.55859375 241.53125 C16.55859375 242.19125 16.55859375 242.85125 16.55859375 243.53125 C-9.41150476 267.30580878 -44.72360066 281.44512429 -79.77734375 281.89453125 C-85.24172122 281.35275395 -89.16361915 279.43464942 -92.69140625 275.21875 C-96.34946797 270.61976951 -97.70674219 266.85135837 -97.19140625 260.96875 C-96.71655538 257.58186188 -95.94117481 254.63077169 -94.44140625 251.53125 C-93.78140625 251.53125 -93.12140625 251.53125 -92.44140625 251.53125 C-92.11140625 250.54125 -91.78140625 249.55125 -91.44140625 248.53125 C-90.78140625 248.53125 -90.12140625 248.53125 -89.44140625 248.53125 C-89.44140625 247.87125 -89.44140625 247.21125 -89.44140625 246.53125 C-84.5232865 243.6642892 -80.53670257 243.00028482 -75.00390625 242.59375 C-56.13164862 240.81672299 -39.31472301 234.37360338 -23.390625 224.2890625 C-20.44140625 222.53125 -20.44140625 222.53125 -18.44140625 222.53125 C-18.44140625 221.87125 -18.44140625 221.21125 -18.44140625 220.53125 C-16.990355 219.26455362 -15.47787531 218.06785763 -13.94140625 216.90625 C6.07869805 201.18821867 20.84652198 177.68442183 25.55859375 152.53125 C25.76226562 151.49226562 25.9659375 150.45328125 26.17578125 149.3828125 C31.15631762 120.113633 24.604466 91.29465923 8.625 66.38671875 C7.55859375 64.53125 7.55859375 64.53125 7.55859375 62.53125 C6.89859375 62.53125 6.23859375 62.53125 5.55859375 62.53125 C5.59001465 63.87703125 5.59001465 63.87703125 5.62207031 65.25 C5.69066991 68.61224859 5.74059669 71.97374235 5.77832031 75.33642578 C5.7983067 76.78543917 5.82550572 78.23437325 5.86035156 79.68310547 C6.21272919 94.72133907 6.21272919 94.72133907 1.55859375 101.53125 C-2.91744131 106.17374613 -6.79936412 107.68962716 -13.19140625 107.84375 C-18.96488927 107.77410606 -21.9188788 107.13081267 -26.44140625 103.53125 C-31.9298441 97.48393728 -32.56302612 92.25734945 -32.58666992 84.17407227 C-32.59002853 83.4514621 -32.59338715 82.72885193 -32.59684753 81.98434448 C-32.6063144 79.60543072 -32.60829838 77.22658765 -32.609375 74.84765625 C-32.61259013 73.18765738 -32.6159544 71.5276588 -32.61946106 69.86766052 C-32.62544136 66.39182885 -32.62730205 62.916022 -32.62670898 59.44018555 C-32.62660733 54.99383609 -32.64026782 50.54764621 -32.65748119 46.10133457 C-32.66861674 42.67403944 -32.67062773 39.24678273 -32.67009926 35.81947136 C-32.67127671 34.18047472 -32.67568527 32.541477 -32.68343163 30.90249825 C-32.69326464 28.6074934 -32.69034074 26.31283304 -32.68432617 24.01782227 C-32.68575119 22.71386002 -32.68717621 21.40989777 -32.68864441 20.06642151 C-32.33814977 15.05482195 -30.80794284 10.92624652 -28.44140625 6.53125 C-27.78140625 6.53125 -27.12140625 6.53125 -26.44140625 6.53125 C-26.44140625 5.87125 -26.44140625 5.21125 -26.44140625 4.53125 C-17.89711018 -0.39699867 -9.55822291 -0.05381714 0 0 Z " fill="#070707" transform="translate(348.44140625,80.46875)"/>
</svg>
